<svg width="116" height="64" viewBox="0 0 116 64" fill="none" xmlns="http://www.w3.org/2000/svg">
<path d="M8.13636 56.25C6.84848 56.25 5.67803 55.9167 4.625 55.25C3.57197 54.5833 2.73106 53.5833 2.10227 52.25C1.47348 50.9167 1.15909 49.2614 1.15909 47.2841C1.15909 45.2311 1.48485 43.5417 2.13636 42.2159C2.78788 40.8902 3.64015 39.9091 4.69318 39.2727C5.75379 38.6364 6.89394 38.3182 8.11364 38.3182C9.0303 38.3182 9.81439 38.4773 10.4659 38.7955C11.1174 39.1061 11.6553 39.5076 12.0795 40C12.5038 40.4924 12.8258 41.0038 13.0455 41.5341H13.1591V32.7273H18.7159V56H13.2159V53.1705H13.0455C12.8106 53.7083 12.4773 54.2121 12.0455 54.6818C11.6136 55.1515 11.072 55.5303 10.4205 55.8182C9.77652 56.1061 9.01515 56.25 8.13636 56.25ZM10.0682 51.9205C10.7424 51.9205 11.3182 51.7311 11.7955 51.3523C12.2727 50.9659 12.6402 50.4242 12.8977 49.7273C13.1553 49.0303 13.2841 48.2121 13.2841 47.2727C13.2841 46.3182 13.1553 45.4962 12.8977 44.8068C12.6477 44.1174 12.2803 43.5871 11.7955 43.2159C11.3182 42.8447 10.7424 42.6591 10.0682 42.6591C9.37879 42.6591 8.79545 42.8485 8.31818 43.2273C7.84091 43.6061 7.47727 44.1402 7.22727 44.8295C6.98485 45.5189 6.86364 46.3333 6.86364 47.2727C6.86364 48.2121 6.98864 49.0303 7.23864 49.7273C7.48864 50.4242 7.84848 50.9659 8.31818 51.3523C8.79545 51.7311 9.37879 51.9205 10.0682 51.9205ZM22.2301 56V38.5455H27.7869V56H22.2301ZM25.0142 36.5114C24.2339 36.5114 23.5634 36.2538 23.0028 35.7386C22.4422 35.2159 22.1619 34.5871 22.1619 33.8523C22.1619 33.125 22.4422 32.5038 23.0028 31.9886C23.5634 31.4659 24.2339 31.2045 25.0142 31.2045C25.8021 31.2045 26.4725 31.4659 27.0256 31.9886C27.5862 32.5038 27.8665 33.125 27.8665 33.8523C27.8665 34.5871 27.5862 35.2159 27.0256 35.7386C26.4725 36.2538 25.8021 36.5114 25.0142 36.5114ZM36.2443 56.2955C35.1307 56.2955 34.142 56.1098 33.2784 55.7386C32.4223 55.3598 31.7443 54.7917 31.2443 54.0341C30.7519 53.2689 30.5057 52.3106 30.5057 51.1591C30.5057 50.1894 30.6761 49.3712 31.017 48.7045C31.358 48.0379 31.8277 47.4962 32.4261 47.0795C33.0246 46.6629 33.714 46.3485 34.4943 46.1364C35.2746 45.9167 36.108 45.7689 36.9943 45.6932C37.9867 45.6023 38.786 45.5076 39.392 45.4091C39.9981 45.303 40.4375 45.1553 40.7102 44.9659C40.9905 44.7689 41.1307 44.4924 41.1307 44.1364V44.0795C41.1307 43.4962 40.9299 43.0455 40.5284 42.7273C40.1269 42.4091 39.5852 42.25 38.9034 42.25C38.1686 42.25 37.5777 42.4091 37.1307 42.7273C36.6837 43.0455 36.3996 43.4848 36.2784 44.0455L31.1534 43.8636C31.3049 42.803 31.6951 41.8561 32.3239 41.0227C32.9602 40.1818 33.8314 39.5227 34.9375 39.0455C36.0511 38.5606 37.3883 38.3182 38.9489 38.3182C40.0625 38.3182 41.089 38.4508 42.0284 38.7159C42.9678 38.9735 43.786 39.3523 44.483 39.8523C45.1799 40.3447 45.7178 40.9508 46.0966 41.6705C46.483 42.3902 46.6761 43.2121 46.6761 44.1364V56H41.4489V53.5682H41.3125C41.0019 54.1591 40.6042 54.6591 40.1193 55.0682C39.642 55.4773 39.0777 55.7841 38.4261 55.9886C37.7822 56.1932 37.0549 56.2955 36.2443 56.2955ZM37.9602 52.6591C38.5587 52.6591 39.0966 52.5379 39.5739 52.2955C40.0587 52.053 40.4451 51.7197 40.733 51.2955C41.0208 50.8636 41.1648 50.3636 41.1648 49.7955V48.1364C41.0057 48.2197 40.8125 48.2955 40.5852 48.3636C40.3655 48.4318 40.1231 48.4962 39.858 48.5568C39.5928 48.6174 39.3201 48.6705 39.0398 48.7159C38.7595 48.7614 38.4905 48.803 38.233 48.8409C37.7102 48.9242 37.2633 49.053 36.892 49.2273C36.5284 49.4015 36.2481 49.6288 36.0511 49.9091C35.8617 50.1818 35.767 50.5076 35.767 50.8864C35.767 51.4621 35.9716 51.9015 36.3807 52.2045C36.7973 52.5076 37.3239 52.6591 37.9602 52.6591ZM61.2443 44.4432V48.7273H50.4716V44.4432H61.2443ZM71.5426 56.25C70.2547 56.25 69.0843 55.9167 68.0312 55.25C66.9782 54.5833 66.1373 53.5833 65.5085 52.25C64.8797 50.9167 64.5653 49.2614 64.5653 47.2841C64.5653 45.2311 64.8911 43.5417 65.5426 42.2159C66.1941 40.8902 67.0464 39.9091 68.0994 39.2727C69.16 38.6364 70.3002 38.3182 71.5199 38.3182C72.4366 38.3182 73.2206 38.4773 73.8722 38.7955C74.5237 39.1061 75.0616 39.5076 75.4858 40C75.91 40.4924 76.232 41.0038 76.4517 41.5341H76.5653V32.7273H82.1222V56H76.6222V53.1705H76.4517C76.2169 53.7083 75.8835 54.2121 75.4517 54.6818C75.0199 55.1515 74.4782 55.5303 73.8267 55.8182C73.1828 56.1061 72.4214 56.25 71.5426 56.25ZM73.4744 51.9205C74.1487 51.9205 74.7244 51.7311 75.2017 51.3523C75.679 50.9659 76.0464 50.4242 76.304 49.7273C76.5616 49.0303 76.6903 48.2121 76.6903 47.2727C76.6903 46.3182 76.5616 45.4962 76.304 44.8068C76.054 44.1174 75.6866 43.5871 75.2017 43.2159C74.7244 42.8447 74.1487 42.6591 73.4744 42.6591C72.785 42.6591 72.2017 42.8485 71.7244 43.2273C71.2472 43.6061 70.8835 44.1402 70.6335 44.8295C70.3911 45.5189 70.2699 46.3333 70.2699 47.2727C70.2699 48.2121 70.3949 49.0303 70.6449 49.7273C70.8949 50.4242 71.2547 50.9659 71.7244 51.3523C72.2017 51.7311 72.785 51.9205 73.4744 51.9205ZM85.6364 56V38.5455H91.1932V56H85.6364ZM88.4205 36.5114C87.6402 36.5114 86.9697 36.2538 86.4091 35.7386C85.8485 35.2159 85.5682 34.5871 85.5682 33.8523C85.5682 33.125 85.8485 32.5038 86.4091 31.9886C86.9697 31.4659 87.6402 31.2045 88.4205 31.2045C89.2083 31.2045 89.8788 31.4659 90.4318 31.9886C90.9924 32.5038 91.2727 33.125 91.2727 33.8523C91.2727 34.5871 90.9924 35.2159 90.4318 35.7386C89.8788 36.2538 89.2083 36.5114 88.4205 36.5114ZM99.6506 56.2955C98.5369 56.2955 97.5483 56.1098 96.6847 55.7386C95.8286 55.3598 95.1506 54.7917 94.6506 54.0341C94.1581 53.2689 93.9119 52.3106 93.9119 51.1591C93.9119 50.1894 94.0824 49.3712 94.4233 48.7045C94.7642 48.0379 95.2339 47.4962 95.8324 47.0795C96.4309 46.6629 97.1203 46.3485 97.9006 46.1364C98.6809 45.9167 99.5142 45.7689 100.401 45.6932C101.393 45.6023 102.192 45.5076 102.798 45.4091C103.404 45.303 103.844 45.1553 104.116 44.9659C104.397 44.7689 104.537 44.4924 104.537 44.1364V44.0795C104.537 43.4962 104.336 43.0455 103.935 42.7273C103.533 42.4091 102.991 42.25 102.31 42.25C101.575 42.25 100.984 42.4091 100.537 42.7273C100.09 43.0455 99.8059 43.4848 99.6847 44.0455L94.5597 43.8636C94.7112 42.803 95.1013 41.8561 95.7301 41.0227C96.3665 40.1818 97.2377 39.5227 98.3438 39.0455C99.4574 38.5606 100.795 38.3182 102.355 38.3182C103.469 38.3182 104.495 38.4508 105.435 38.7159C106.374 38.9735 107.192 39.3523 107.889 39.8523C108.586 40.3447 109.124 40.9508 109.503 41.6705C109.889 42.3902 110.082 43.2121 110.082 44.1364V56H104.855V53.5682H104.719C104.408 54.1591 104.01 54.6591 103.526 55.0682C103.048 55.4773 102.484 55.7841 101.832 55.9886C101.188 56.1932 100.461 56.2955 99.6506 56.2955ZM101.366 52.6591C101.965 52.6591 102.503 52.5379 102.98 52.2955C103.465 52.053 103.851 51.7197 104.139 51.2955C104.427 50.8636 104.571 50.3636 104.571 49.7955V48.1364C104.412 48.2197 104.219 48.2955 103.991 48.3636C103.772 48.4318 103.529 48.4962 103.264 48.5568C102.999 48.6174 102.726 48.6705 102.446 48.7159C102.166 48.7614 101.897 48.803 101.639 48.8409C101.116 48.9242 100.67 49.053 100.298 49.2273C99.9347 49.4015 99.6544 49.6288 99.4574 49.9091C99.268 50.1818 99.1733 50.5076 99.1733 50.8864C99.1733 51.4621 99.3778 51.9015 99.7869 52.2045C100.204 52.5076 100.73 52.6591 101.366 52.6591Z" fill="white"/>
<rect x="0.5" y="0.5" width="15" height="15" rx="3.5" fill="#18181B" stroke="#27272A"/>
<rect x="20.5" y="0.5" width="15" height="15" rx="3.5" fill="#4C1D95" stroke="#6D28D9"/>
<rect x="40.5" y="0.5" width="15" height="15" rx="3.5" fill="#5B21B6" stroke="#7C3AED"/>
<rect x="60.5" y="0.5" width="15" height="15" rx="3.5" fill="#6D28D9" stroke="#8B5CF6"/>
<rect x="80.5" y="0.5" width="15" height="15" rx="3.5" fill="#7C3AED" stroke="#A78BFA"/>
<rect x="100.5" y="0.5" width="15" height="15" rx="3.5" fill="#8B5CF6" stroke="#C4B5FD"/>
</svg>
